# xmcd
#
# Track frame offsets:
#	150
#	36900
#	45862
#	85574
#	134699
#	156111
#	180223
#	220685
#
# Disc length: 3343 seconds
#
# Revision: 2
# Processed by: cddbd v1.5.1PL2 Copyright (c) Steve Scherf et al.
# Submitted via: EasyCDDAExtractor 8.0.2.1
#
DISCID=590d0d08
DTITLE=Dio - Exeter University Exeter 17-10-05 Disc 2
DYEAR=2005
DGENRE=Hard Rock
TTITLE0=Guitar Solo
TTITLE1=Holy Dive Reprise
TTITLE2=Gates Of Babylon
TTITLE3=Heaven and Hell
TTITLE4=Man On The Silver Mountain
TTITLE5=Catch The Rainbow - Long Live Rock and Roll
TTITLE6=The Last In Line
TTITLE7=We Rock
EXTD=
EXTT0=
EXTT1=
EXTT2=
EXTT3=
EXTT4=
EXTT5=
EXTT6=
EXTT7=
PLAYORDER=
